<svg width="500" height="500" viewBox="0 0 500 500" fill="none" xmlns="http://www.w3.org/2000/svg">
<g id="contact-img 1" clip-path="url(#clip0)">
<g id="freepik  background complete  inject 79">
<path id="Vector" d="M372.31 154L459.92 153.86C459.92 153.86 455.55 148.2 450.75 147.49C450.75 147.49 441.37 119.7 425.75 119.49C411.21 119.33 405.41 136.62 405.41 136.62C405.41 136.62 398.66 128.88 392.23 132.43C385.8 135.98 382.23 146.14 382.23 146.14C382.23 146.14 374.93 150 372.31 154Z" fill="#EBEBEB"/>
<path id="Vector_2" d="M150.87 249.69L40.08 249.86C40.08 249.86 40.08 242.78 55.33 241.37C55.33 241.37 69.22 210.37 90.5 214.54C103.76 217.11 110.56 235.29 110.56 235.29C110.56 235.29 120.56 220.96 128.56 223.72C136.56 226.48 141.35 241.72 141.35 241.72C141.35 241.72 149.61 245.69 150.87 249.69Z" fill="#EBEBEB"/>
<path id="Vector_3" d="M383.6 446.74L272.81 446.91C272.81 446.91 272.81 439.83 288.06 438.42C288.06 438.42 301.95 407.42 323.23 411.58C336.49 414.15 343.29 432.33 343.29 432.33C343.29 432.33 353.29 418 361.29 420.76C369.29 423.52 374.08 438.76 374.08 438.76C374.08 438.76 382.34 442.74 383.6 446.74Z" fill="#EBEBEB"/>
<path id="Vector_4" d="M382 77.27L306.67 77.38C306.67 77.38 313.77 70.75 316.93 70.75C320.09 70.75 329.27 48.52 341.06 49.44C352.85 50.36 359.11 66.9 359.11 66.9C359.11 66.9 373.43 62.39 382 77.27Z" fill="#EBEBEB"/>
<path id="Vector_5" d="M145.08 417.87L69.74 418C69.74 418 76.84 411.38 80 411.37C83.16 411.36 92.35 389.14 104.13 390.07C115.91 391 122.2 407.53 122.2 407.53C122.2 407.53 136.51 403 145.08 417.87Z" fill="#EBEBEB"/>
<path id="Vector_6" d="M133.6 99.36L69.18 99.46C69.18 99.46 72.38 95.28 75.91 94.75C75.91 94.75 82.74 74.3 94.24 74.13C104.93 73.98 109.24 86.68 109.24 86.68C109.24 86.68 114.18 80.98 118.92 83.58C123.66 86.18 126.34 93.58 126.34 93.58C126.34 93.58 131.67 96.49 133.6 99.36Z" fill="#EBEBEB"/>
<path id="Vector_7" d="M455.25 382.86L390.83 382.96C390.83 382.96 394.03 378.78 397.56 378.26C397.56 378.26 404.39 357.8 415.89 357.64C426.58 357.48 430.89 370.19 430.89 370.19C430.89 370.19 435.83 364.48 440.57 367.08C445.31 369.68 448 377.14 448 377.14C448 377.14 453.32 380 455.25 382.86Z" fill="#EBEBEB"/>
</g>
<g id="freepik  World  inject 79">
<path id="Vector_8" d="M429.06 250C429.12 287.827 417.142 324.692 394.86 355.26C376.851 380.049 352.783 399.802 324.958 412.63C297.133 425.458 266.482 430.932 235.937 428.528C205.392 426.124 175.974 415.923 150.499 398.9C125.023 381.878 104.341 358.603 90.4315 331.302C76.522 304.002 69.8502 273.589 71.0542 242.973C72.2582 212.357 81.2979 182.562 97.3084 156.438C113.319 130.315 135.765 108.736 162.499 93.7665C189.233 78.797 219.36 70.9376 250 70.94C254.913 70.94 259.777 71.1367 264.59 71.53C292.33 73.7459 319.163 82.4425 342.93 96.92C369.232 112.883 390.975 135.355 406.062 162.169C421.149 188.983 429.07 219.233 429.06 250Z" fill="#455A64"/>
<g id="Group" opacity="0.2">
<path id="Vector_9" opacity="0.2" d="M288.67 334.51C286.41 340.51 290.17 340.78 290.42 343.29C290.67 345.8 290.42 350.56 283.15 357.84C275.88 365.12 263.84 363.6 261.33 366.61C258.82 369.62 254.56 382.41 248.54 386.68C242.52 390.95 241.54 388.43 232.99 390.19C224.44 391.95 218 403 215.44 408.24C212.88 413.48 215.94 422.29 209.92 422.54C203.9 422.79 201.14 409.75 195.63 402.73C190.12 395.71 188.35 389.43 186.63 381.16C184.91 372.89 187.63 355.58 186.63 348.81C185.63 342.04 167.54 330 161 321.72C154.46 313.44 145.47 296.9 146 291.38C146.76 286.026 149.431 281.128 153.52 277.59C156.52 275.33 155.28 274.08 155.78 272.07C156.28 270.06 158.78 269.56 159.29 267.07C159.8 264.58 157.79 257.07 155.29 255.79C152.79 254.51 151.03 258.79 149.52 258.04C148.01 257.29 143.52 252.04 141.75 251.52C139.98 251 140.49 254.78 137.99 250.02C135.49 245.26 134.22 233.22 132.22 231.21C130.22 229.2 128.71 234.72 123.94 231.21C119.17 227.7 117.17 220.93 115.16 219.93C113.15 218.93 110.4 220.18 108.34 216.16C106.28 212.14 110.15 204.88 108.34 205.63C106.53 206.38 102.63 212.15 101.62 206.63C100.61 201.11 106.62 182.56 105.62 172.53C104.62 162.5 108.12 151.96 115.14 143.44C115.14 143.44 116.14 137.92 117.14 134.44C118.14 130.96 139.71 116.89 142.22 112.87C143.22 111.2 143.61 108.57 143.99 105.74C174.692 83.095 211.85 70.8973 250 70.94C254.913 70.94 259.777 71.1367 264.59 71.53L265.09 72.2C267.26 74.95 269.61 76.71 275.96 79.05C282.31 81.39 283.82 84.4 282.48 86.91C281.14 89.42 278.97 89.91 276.48 90.09C273.99 90.27 271.63 88.91 268.96 90.59C266.29 92.27 263.61 101.29 260.1 101.79C256.59 102.29 250.4 93.79 249.1 91.26C247.8 88.73 252.1 83.4 250.1 80.89C248.1 78.38 244.46 78.89 238.77 78.38C233.08 77.87 219.89 80.06 220.39 82.23C220.89 84.4 239.78 81.89 240.28 86.23C240.78 90.57 226.41 97.93 223.9 97.23C221.39 96.53 218.05 92.23 214.37 91.72C210.69 91.21 207.68 94.22 205.37 94.56C203.06 94.9 200.37 92.05 196.81 92.72C193.25 93.39 192.47 96.4 190.62 97.57C188.77 98.74 184.44 98.74 183.94 101.41C183.44 104.08 189.46 105.6 190.94 107.27C192.42 108.94 189.1 114.62 190.6 115.79C192.1 116.96 201.47 108.79 203.82 106.79C206.17 104.79 208.16 96.1 213.18 96.26C218.2 96.42 219.87 104.95 221.54 105.79C223.21 106.63 226.89 103.79 232.4 104.95C237.91 106.11 241.76 118.16 242.77 121.84C243.78 125.52 246.11 129.2 244.11 130.7C242.11 132.2 233.11 129.7 231.9 127.36C230.69 125.02 237.9 121.5 237.42 120.67C236.94 119.84 232.74 118.67 230.56 119.97C228.38 121.27 227.39 123.97 225.05 124.68C222.71 125.39 216.52 118.33 214.85 120.34C213.18 122.35 216.52 128.7 218.19 130.2C219.86 131.7 226.05 132.54 226.55 134.2C227.05 135.86 222.37 139.55 216.69 139.2C211.01 138.85 206.32 134.52 204.15 136.36C201.98 138.2 203.15 143.04 201.64 144.72C200.13 146.4 191.94 145.22 187.93 149.56C183.92 153.9 182 160.47 178 164.15C174 167.83 172.15 163.15 166.8 168.33C161.45 173.51 160.61 185.05 160.44 189.06C160.27 193.07 160.44 196.25 159.11 195.75C157.78 195.25 155.93 191.75 155.43 189.56C154.93 187.37 156.6 183.71 156.6 182.37C156.6 181.03 148.91 174.18 144.39 173.51C139.87 172.84 135.86 176.51 132.52 179.19C129.18 181.87 123.16 181.37 120.99 183.54C118.82 185.71 117.14 204.94 118.81 209.46C120.48 213.98 122.66 213.97 128.01 211.63C133.36 209.29 130.35 204.77 133.53 205.78C136.71 206.79 138.37 210.13 138.37 212.78C138.37 215.43 132.02 221.78 132.86 223.65C133.7 225.52 139.21 223.31 141.86 224.15C144.51 224.99 145.86 226.66 145.04 233.51C144.22 240.36 144.71 245.72 148.72 247.97C152.73 250.22 154.99 244.71 156.72 245.47C158.45 246.23 160.99 250.23 163.5 249.98C166.01 249.73 164.75 247.47 169.5 245.98C174.25 244.49 172.5 243.47 173.5 240.46C174.5 237.45 177.5 234.94 180.77 236.46C184.04 237.98 181.77 240.22 182.02 242.73C182.27 245.24 188.02 245.49 192.56 246.99C197.1 248.49 199.56 246.99 208.56 249.99C217.56 252.99 218.09 261.99 221.85 263.53C225.61 265.07 238.15 262.53 247.18 269.05C256.21 275.57 253.7 287.61 258.18 291.12C262.66 294.63 279.5 299.39 286.02 300.65C292.54 301.91 293.54 297.39 298.81 298.65C304.08 299.91 307.08 301.41 308.81 308.65C310.52 315.08 290.92 328.49 288.67 334.51Z" fill="black"/>
<path id="Vector_10" opacity="0.2" d="M153.91 206.28C154.08 207.7 158.26 208.28 163.27 211.13C168.28 213.98 170.13 222.33 172.8 222.13C175.47 221.93 174.64 218.13 175.65 217.13C176.66 216.13 178.32 213.95 175.65 211.78C172.98 209.61 170.37 204.92 165.48 204.25C160.59 203.58 159.76 201.58 157.59 201.75C157.032 201.754 156.482 201.881 155.979 202.122C155.476 202.364 155.033 202.713 154.681 203.147C154.329 203.58 154.078 204.085 153.944 204.627C153.811 205.169 153.799 205.733 153.91 206.28Z" fill="black"/>
<path id="Vector_11" opacity="0.2" d="M181.5 220.32C180.75 222.37 181.5 223.84 186.85 225.17C192.2 226.5 197.21 223.84 195.54 222.75C193.87 221.66 191.36 222.16 192.37 220.32C193.38 218.48 193.03 215.81 188.68 216.32C184.33 216.83 182.17 218.49 181.5 220.32Z" fill="black"/>
<path id="Vector_12" opacity="0.2" d="M200.22 220.89C198.4 221.16 197.38 224.34 199.22 226.34C201.06 228.34 201.06 228.01 203.22 226.34C205.38 224.67 208.74 223.84 207.9 222.17C207.06 220.5 202.06 220.63 200.22 220.89Z" fill="black"/>
<path id="Vector_13" opacity="0.2" d="M214.77 227.73C215.59 225.22 219.77 227.73 221.62 230.36C223.47 232.99 222.62 236.88 221.62 239.72C220.62 242.56 219.95 245.9 217.62 244.57C215.29 243.24 217.79 239.22 217.45 236.88C217.11 234.54 214.1 229.78 214.77 227.73Z" fill="black"/>
<path id="Vector_14" opacity="0.2" d="M286.83 88.25C285.95 90.35 290 91.09 292.34 92.43C294.68 93.77 296.52 94.6 297.86 92.43C299.2 90.26 297.36 87.74 295.52 87.24C293.68 86.74 287.66 86.24 286.83 88.25Z" fill="black"/>
<path id="Vector_15" opacity="0.2" d="M318.42 107.81C319.97 109.43 322.6 109.14 324.42 111.49C326.24 113.84 325.59 117.84 327.93 119.01C330.27 120.18 331.93 119.01 332.11 117.34C332.29 115.67 328.77 111.49 329.11 110.65C329.45 109.81 333.96 111.82 334.97 114.33C335.98 116.84 333.97 120.33 336.3 121.01C338.63 121.69 338.14 118.67 339.15 118.01C340.16 117.35 342.32 117.67 342.15 115.66C341.98 113.65 339.3 109.31 337.15 107.81C335 106.31 333.3 104.63 329.63 103.81C325.96 102.99 322.44 103.65 320.63 105.15C318.82 106.65 317.47 106.8 318.42 107.81Z" fill="black"/>
<path id="Vector_16" opacity="0.2" d="M390.76 139.32C390.657 139.997 390.325 140.618 389.82 141.08C386.3 143.58 382.12 134.89 377.28 133.22C372.44 131.55 370.28 125.36 369.28 126.7C368.28 128.04 368.61 129.88 367.11 132.05C365.61 134.22 363.43 133.72 362.43 137.9C361.43 142.08 367.11 149.77 365.77 152.28C364.43 154.79 362.77 153.95 360.08 153.79C357.39 153.63 357.91 155.96 354.41 154.95C350.91 153.94 353.9 149.6 348.41 144.42C342.92 139.24 341.05 138.24 342.23 135.89C343.41 133.54 341.73 130.21 344.23 129.89C346.73 129.57 348.75 133.23 350.42 134.23C352.09 135.23 354.26 132.23 354.42 129.55C354.58 126.87 348.57 123.2 346.42 121.12C344.27 119.04 344 111.48 344.84 110C345.68 108.52 348.19 109 348.84 105.32C349.23 103.16 345.84 99.55 342.92 96.94C361.268 108.098 377.471 122.451 390.76 139.32Z" fill="black"/>
<path id="Vector_17" opacity="0.2" d="M415.73 289.21C416.23 283.86 413.55 283.52 416.23 273.66C418.91 263.8 413.39 253.26 411.38 251.09C409.37 248.92 405.03 249.58 401.52 251.76C398.01 253.94 400.52 255.6 398.17 256.44C395.82 257.28 393.49 255.93 391.32 256.1C389.15 256.27 387.14 261.79 382.46 261.62C377.78 261.45 374.77 254.76 371.26 250C367.75 245.24 360.55 242.23 358.26 236.37C355.97 230.51 360.43 221.5 359.43 214.64C358.43 207.78 353.91 209.29 353.07 205.45C352.23 201.61 353.74 203.45 354.91 199.76C356.08 196.07 353.57 194.08 355.91 187.76C358.25 181.44 362.43 178.23 361.42 175.39C360.41 172.55 357.24 167.87 357.07 164.53C356.9 161.19 360.25 161.35 366.6 156.66C372.95 151.97 374.6 152.32 379.48 153.99C382.961 155.275 386.539 156.278 390.18 156.99C393.02 157.49 396.87 164.85 398.04 164.51C399.21 164.17 399.38 162.01 399.88 158.83C400.199 157.45 400.923 156.196 401.96 155.23C420.83 185.493 430.237 220.699 428.977 256.34C427.718 291.981 415.849 326.435 394.89 355.29C411.91 329.23 415.22 294.55 415.73 289.21Z" fill="black"/>
</g>
<path id="Vector_18" opacity="0.1" d="M388.72 363.22C369.618 386.63 344.903 404.826 316.876 416.114C288.85 427.402 258.422 431.415 228.427 427.779C198.432 424.142 169.845 412.976 145.327 395.318C120.81 377.661 101.158 354.086 88.2031 326.79C75.2479 299.494 69.4103 269.364 71.2335 239.204C73.0568 209.045 82.4818 179.837 98.6309 154.3C114.78 128.764 137.128 107.728 163.595 93.153C190.061 78.5776 219.785 70.9362 250 70.94C254.913 70.94 259.78 71.1367 264.6 71.53C265.93 71.63 267.26 71.75 268.6 71.9C243.288 74.6485 218.963 83.2497 197.55 97.0232C176.136 110.797 158.222 129.364 145.224 151.257C132.226 173.15 124.502 197.768 122.662 223.162C120.821 248.556 124.916 274.03 134.621 297.568C144.327 321.106 159.377 342.063 178.581 358.78C197.785 375.497 220.615 387.515 245.267 393.884C269.918 400.253 295.713 400.798 320.611 395.476C345.509 390.154 368.827 379.111 388.72 363.22Z" fill="black"/>
<path id="Vector_19" opacity="0.3" d="M429.06 250C429.124 287.828 417.146 324.694 394.86 355.26C378.065 378.353 356.014 397.117 330.53 410C352.715 397.297 371.96 380.043 387 359.37C408.082 330.349 420.022 295.694 421.288 259.846C422.555 223.998 413.091 188.587 394.11 158.15C390.662 152.613 386.91 147.271 382.87 142.15C369.52 125.179 353.24 110.734 334.8 99.5C310.89 84.9528 283.9 76.2187 256 74C251.17 73.61 246.26 73.41 241.33 73.41C226.756 73.4004 212.234 75.1532 198.08 78.63C214.915 73.5295 232.409 70.9383 250 70.94C254.913 70.94 259.78 71.1367 264.6 71.53C309.419 75.1827 351.221 95.5703 381.693 128.639C412.166 161.707 429.075 205.033 429.06 250Z" fill="white"/>
</g>
<g id="freepik  Clouds  inject 79">
<path id="Vector_20" opacity="0.7" d="M286.33 208.34C314.796 205.755 342.887 200.023 370.09 191.25C370.09 191.25 366.01 188.4 361.49 189.25C361.49 189.25 352.72 171.56 337.81 174.86C323.94 177.86 318.3 191.35 318.31 191.4C318.32 191.45 311.84 186.84 305.62 190.32C299.4 193.8 295.88 201.65 295.88 201.65C295.88 201.65 288.87 205.27 286.33 208.34Z" fill="#DBDBDB"/>
<path id="Vector_21" d="M166.72 234.93C131.016 226.957 96.624 213.961 64.57 196.33C64.57 196.26 64.51 191.28 78.11 197.2C78.11 197.13 90.47 180.92 110.11 191.68C122.32 198.33 128.69 213.68 128.68 213.68C128.67 213.68 138.04 206.25 145.61 210.4C153.18 214.55 157.7 226.86 157.7 226.87C157.7 226.88 165.52 231.74 166.72 234.93Z" fill="#EBEBEB"/>
<path id="Vector_22" d="M437.8 217.28C405.744 234.907 371.352 247.903 335.65 255.88C335.65 255.81 335.65 250.88 350.17 246.11C350.17 246.04 363.45 220.11 383.17 216.06C395.45 213.47 401.59 224.06 401.6 224.13C401.61 224.2 410.75 209.73 417.94 208.3C425.13 206.87 429.35 215.86 429.35 215.88C429.35 215.9 436.71 215 437.8 217.28Z" fill="#EBEBEB"/>
<path id="Vector_23" d="M264.64 137.73C240.189 138.573 215.714 137.103 191.54 133.34C191.54 133.34 198.4 129.51 201.45 129.89C204.5 130.27 213.45 115.07 224.87 116.54C236.29 118.01 242.4 130.18 242.4 130.21C242.4 130.24 256.33 127.14 264.64 137.73Z" fill="#EBEBEB"/>
<path id="Vector_24" d="M229.76 418C205.277 416.634 180.978 412.951 157.19 407C157.19 407 163.95 403.79 166.98 404.44C170.01 405.09 178.8 390.7 190.16 393.2C201.52 395.7 207.58 408.42 207.58 408.45C207.58 408.48 221.45 406.65 229.76 418Z" fill="#EBEBEB"/>
<path id="Vector_25" opacity="0.7" d="M156.22 323.69C135.691 318.502 115.624 311.636 96.22 303.16C98.0811 302.097 100.282 301.796 102.36 302.32C102.36 302.32 108.62 289.97 119.29 293.75C129.22 297.21 133.29 307.75 133.29 307.75C134.705 306.986 136.305 306.628 137.911 306.717C139.517 306.805 141.067 307.335 142.39 308.25C146.85 311.48 149.39 317.64 149.39 317.64C149.39 317.64 154.38 321.13 156.22 323.69Z" fill="#DBDBDB"/>
<path id="Vector_26" opacity="0.7" d="M301 391.86C329.406 388.181 357.317 381.363 384.22 371.53C384.22 371.53 380.22 368.84 375.7 369.83C375.7 369.83 367.02 352.48 352.22 356.36C338.44 359.88 332.83 373.6 332.84 373.65C332.85 373.7 326.41 369.34 320.22 373.06C314.03 376.78 310.52 384.76 310.52 384.76C310.52 384.76 303.51 388.68 301 391.86Z" fill="#DBDBDB"/>
</g>
<g id="freepik  Locators  inject 79">
<path id="Vector_27" d="M411.1 298.37C410.84 295.78 409.1 293.21 405.93 293.21C402.76 293.21 401.02 295.78 400.76 298.37C400.36 302.37 403.06 305.98 405.93 309.28C408.8 306 411.5 302.36 411.1 298.37ZM405.93 301.24C405.37 301.24 404.823 301.074 404.358 300.763C403.892 300.452 403.53 300.01 403.315 299.493C403.101 298.976 403.045 298.407 403.154 297.858C403.264 297.309 403.533 296.805 403.929 296.409C404.325 296.013 404.829 295.744 405.378 295.634C405.927 295.525 406.496 295.581 407.013 295.795C407.53 296.01 407.972 296.372 408.283 296.838C408.594 297.303 408.76 297.85 408.76 298.41C408.757 299.16 408.458 299.878 407.928 300.408C407.398 300.938 406.68 301.237 405.93 301.24Z" fill="#FFA500"/>
<path id="Vector_28" d="M242.57 370C242.23 366.53 239.84 363.08 235.64 363.08C231.44 363.08 229.06 366.53 228.72 370C228.19 375.35 231.8 380.19 235.64 384.61C239.5 380.17 243.1 375.33 242.57 370ZM235.64 373.84C234.891 373.838 234.159 373.614 233.537 373.196C232.915 372.779 232.431 372.186 232.146 371.493C231.86 370.801 231.787 370.039 231.934 369.304C232.081 368.57 232.443 367.896 232.974 367.367C233.504 366.837 234.179 366.478 234.914 366.332C235.649 366.187 236.411 366.262 237.103 366.549C237.795 366.837 238.386 367.322 238.802 367.945C239.218 368.568 239.44 369.301 239.44 370.05C239.435 371.053 239.032 372.014 238.319 372.721C237.607 373.427 236.643 373.823 235.64 373.82V373.84Z" fill="#FFA500"/>
<path id="Vector_29" d="M382.45 166.76C382.11 163.3 379.72 159.85 375.52 159.85C371.32 159.85 368.94 163.3 368.6 166.76C368.07 172.11 371.68 176.96 375.52 181.38C379.38 177 383 172.11 382.45 166.76ZM375.52 170.61C374.768 170.61 374.033 170.387 373.408 169.969C372.783 169.551 372.296 168.957 372.008 168.262C371.721 167.567 371.646 166.802 371.794 166.065C371.941 165.328 372.304 164.65 372.837 164.119C373.369 163.588 374.047 163.227 374.785 163.082C375.523 162.936 376.287 163.013 376.981 163.302C377.675 163.591 378.268 164.08 378.684 164.706C379.101 165.332 379.322 166.068 379.32 166.82C379.32 167.319 379.222 167.812 379.031 168.273C378.839 168.733 378.559 169.151 378.206 169.503C377.853 169.856 377.434 170.134 376.973 170.324C376.512 170.514 376.019 170.611 375.52 170.61Z" fill="#FFA500"/>
<path id="Vector_30" d="M283.93 309.91C283.67 307.32 281.93 304.74 278.76 304.74C275.59 304.74 273.84 307.32 273.59 309.91C273.19 313.91 275.88 317.52 278.76 320.82C281.63 317.52 284.33 313.9 283.93 309.91ZM278.76 312.78C278.197 312.782 277.647 312.617 277.178 312.306C276.71 311.994 276.344 311.551 276.128 311.031C275.912 310.512 275.855 309.94 275.964 309.388C276.073 308.837 276.344 308.33 276.742 307.932C277.14 307.534 277.647 307.263 278.198 307.154C278.75 307.045 279.322 307.102 279.841 307.318C280.361 307.534 280.804 307.9 281.116 308.368C281.427 308.837 281.592 309.387 281.59 309.95C281.587 310.7 281.288 311.418 280.758 311.948C280.228 312.478 279.51 312.777 278.76 312.78Z" fill="#FFA500"/>
<path id="Vector_31" d="M176.92 259.09C176.66 256.5 174.92 253.93 171.75 253.93C168.58 253.93 166.84 256.5 166.58 259.09C166.18 263.09 168.88 266.7 171.75 270C174.62 266.7 177.32 263.08 176.92 259.09ZM171.75 262C171.191 261.998 170.645 261.83 170.18 261.518C169.716 261.206 169.355 260.763 169.143 260.246C168.93 259.729 168.875 259.16 168.986 258.612C169.096 258.063 169.366 257.56 169.762 257.165C170.159 256.771 170.663 256.502 171.212 256.394C171.76 256.285 172.329 256.342 172.845 256.556C173.362 256.771 173.803 257.134 174.114 257.599C174.424 258.064 174.59 258.611 174.59 259.17C174.591 259.543 174.519 259.912 174.376 260.257C174.234 260.601 174.025 260.914 173.761 261.178C173.496 261.441 173.183 261.649 172.838 261.79C172.493 261.931 172.123 262.003 171.75 262Z" fill="#FFA500"/>
<path id="Vector_32" d="M117.79 169.14C117.53 166.55 115.79 163.98 112.62 163.98C109.45 163.98 107.71 166.55 107.45 169.14C107.05 173.14 109.75 176.75 112.62 180.05C115.49 176.75 118.19 173.13 117.79 169.14ZM112.62 172C112.06 172 111.513 171.834 111.048 171.523C110.582 171.212 110.22 170.77 110.005 170.253C109.791 169.736 109.735 169.167 109.844 168.618C109.954 168.069 110.223 167.565 110.619 167.169C111.015 166.773 111.519 166.504 112.068 166.394C112.617 166.285 113.186 166.341 113.703 166.555C114.22 166.77 114.662 167.132 114.973 167.598C115.284 168.063 115.45 168.61 115.45 169.17C115.45 169.542 115.377 169.91 115.235 170.253C115.092 170.596 114.884 170.908 114.621 171.171C114.358 171.434 114.046 171.642 113.703 171.785C113.36 171.927 112.992 172 112.62 172Z" fill="#FFA500"/>
<path id="Vector_33" d="M188.18 122.21C187.84 118.75 185.45 115.3 181.25 115.3C177.05 115.3 174.67 118.75 174.33 122.21C173.8 127.56 177.41 132.4 181.25 136.82C185.1 132.4 188.71 127.56 188.18 122.21ZM181.25 126.06C180.498 126.06 179.764 125.837 179.139 125.42C178.514 125.002 178.027 124.409 177.739 123.714C177.452 123.02 177.376 122.256 177.523 121.519C177.67 120.782 178.032 120.104 178.563 119.573C179.094 119.042 179.772 118.68 180.509 118.533C181.246 118.386 182.01 118.462 182.704 118.749C183.399 119.037 183.992 119.524 184.41 120.149C184.827 120.774 185.05 121.508 185.05 122.26C185.05 122.759 184.952 123.253 184.761 123.714C184.57 124.175 184.29 124.594 183.937 124.947C183.584 125.3 183.165 125.58 182.704 125.771C182.243 125.962 181.749 126.06 181.25 126.06Z" fill="#FFA500"/>
</g>
<g id="Plane">
<path id="Vector_34" d="M72.2917 340.828C71.4675 340.276 60.2716 335.977 59.4308 335.654L61.248 335.282C61.248 335.282 71.5724 340.242 72.2917 340.828Z" fill="#FFA500"/>
<path id="Vector_35" opacity="0.5" d="M72.2917 340.828C71.4675 340.276 60.2716 335.977 59.4308 335.654L61.248 335.282C61.248 335.282 71.5724 340.242 72.2917 340.828Z" fill="white"/>
<path id="Vector_36" d="M72.3311 340.87C72.3311 340.87 72.3311 340.87 72.3332 340.895C72.2611 341.033 71.5343 341.21 70.7152 341.358L70.6854 341.361C69.9331 341.522 69.1556 341.599 68.3834 341.588C68.1424 341.496 60.152 339.459 55.2613 338.214L55.066 338.168L55.0303 338.171L54.3394 337.993L52.3223 337.483L51.5398 337.284L59.4497 335.665C59.9254 335.845 63.7028 337.296 67.0512 338.626L67.3977 338.762C67.7072 338.885 68.0167 339.008 68.3136 339.124C69.6923 339.643 71.0263 340.214 72.3102 340.834C72.3102 340.834 72.3119 340.855 72.3126 340.863L72.3311 340.87Z" fill="#FFA500"/>
<g id="Group_2" opacity="0.1">
<path id="Vector_37" opacity="0.1" d="M72.3312 340.87C72.3312 340.87 72.3312 340.87 72.3333 340.895C72.2612 341.033 71.5343 341.21 70.7152 341.358L70.6855 341.361C69.9331 341.522 69.1556 341.599 68.3835 341.588C68.1365 341.497 59.9375 339.398 55.0646 338.151C55.865 338.349 66.3686 340.891 68.3063 339.108C69.685 339.627 71.019 340.198 72.3029 340.818C72.3029 340.818 72.3047 340.839 72.3054 340.847L72.3312 340.87Z" fill="black"/>
</g>
<path id="Vector_38" d="M178.085 338.081C178.148 338.822 172.281 339.556 171.466 339.467C170.651 339.378 105.024 327.295 105.024 327.295L128.057 318.847L128.767 319.114L129.076 319.233C133.6 320.949 147.104 326.089 158.9 330.619L159.598 330.887L160.524 331.223C168.705 334.388 175.798 337.134 178.085 338.081Z" fill="#FFA500"/>
<path id="Vector_39" d="M178.085 338.081C172.097 335.598 133.156 320.787 128.057 318.851L130.958 317.778C130.958 317.778 176.493 337.076 177.889 337.878C177.991 337.924 178.061 337.997 178.085 338.081V338.081Z" fill="#FFA500"/>
<path id="Vector_40" opacity="0.5" d="M178.085 338.081C172.097 335.598 133.156 320.787 128.057 318.851L130.958 317.778C130.958 317.778 176.493 337.076 177.889 337.878C177.991 337.924 178.061 337.997 178.085 338.081V338.081Z" fill="white"/>
<g id="Group_3" opacity="0.5">
<path id="Vector_41" opacity="0.1" d="M178.085 338.081C178.148 338.822 172.281 339.556 171.466 339.467C170.651 339.378 105.024 327.295 105.024 327.295L128.057 318.847C128.057 318.847 122.618 323.953 137.051 329.894C146.886 333.942 157.009 334.101 160.495 331.234C168.705 334.388 175.798 337.134 178.085 338.081Z" fill="black"/>
</g>
<path id="Vector_42" d="M123.72 331.497C121.948 332.263 120.01 332.907 119.755 331.652C119.658 331.138 120.193 330.534 123.039 329.304C123.702 329.016 125.352 328.364 125.922 329.376C126.492 330.389 124.383 331.205 123.72 331.497Z" fill="#FFA500"/>
<path id="Vector_43" opacity="0.1" d="M123.72 331.497C121.948 332.263 120.01 332.907 119.755 331.652C119.658 331.138 120.193 330.534 123.039 329.304C123.702 329.016 125.352 328.364 125.922 329.376C126.492 330.389 124.383 331.205 123.72 331.497Z" fill="black"/>
<path id="Vector_44" d="M138.943 334.458C137.171 335.224 135.227 335.872 134.978 334.617C134.875 334.1 135.41 333.495 138.262 332.269C138.926 331.981 140.576 331.333 141.146 332.345C141.716 333.358 139.607 334.17 138.943 334.458Z" fill="#FFA500"/>
<path id="Vector_45" opacity="0.1" d="M138.943 334.458C137.171 335.224 135.227 335.872 134.978 334.617C134.875 334.1 135.41 333.495 138.262 332.269C138.926 331.981 140.576 331.333 141.146 332.345C141.716 333.358 139.607 334.17 138.943 334.458Z" fill="black"/>
<path id="Vector_46" d="M154.16 337.419C152.394 338.185 150.45 338.833 150.201 337.578C150.098 337.065 150.633 336.46 153.479 335.231C154.149 334.946 155.793 334.294 156.369 335.306C156.945 336.319 154.83 337.131 154.16 337.419Z" fill="#FFA500"/>
<path id="Vector_47" opacity="0.1" d="M154.16 337.419C152.394 338.185 150.45 338.833 150.201 337.578C150.098 337.065 150.633 336.46 153.479 335.231C154.149 334.946 155.793 334.294 156.369 335.306C156.945 336.319 154.83 337.131 154.16 337.419Z" fill="black"/>
<path id="Vector_48" d="M148.358 326.775C146.762 329.134 142.754 330.271 140.241 331.187C133.563 333.655 128.698 335.134 125.871 331.042C125.537 330.57 125.308 330.061 125.194 329.533C124.517 326.325 129.233 324.295 131.617 323.192C134.496 321.855 136.54 320.979 138.07 320.39C140.561 319.426 141.695 319.256 142.861 319.113C144.243 318.963 147.382 318.943 148.743 322.823C149.298 324.1 149.161 325.502 148.358 326.775V326.775Z" fill="#FFA500"/>
<path id="Vector_49" d="M148.192 323.669C148.396 326.084 146.381 328.225 143.69 328.452C140.999 328.679 138.654 326.904 138.451 324.489C138.247 322.074 140.262 319.932 142.953 319.706C145.644 319.479 147.989 321.254 148.192 323.669Z" fill="#263238"/>
<path id="Vector_50" d="M147.622 323.717C147.802 325.852 146.023 327.742 143.647 327.942C141.271 328.142 139.195 326.577 139.015 324.441C138.835 322.306 140.62 320.412 142.996 320.212C145.372 320.012 147.442 321.581 147.622 323.717Z" fill="#455A64"/>
<path id="Vector_51" d="M46.0063 331.104L44.9019 331.487L42.4131 332.339L33.4003 330.45C24.6809 328.636 14.3317 326.508 12.3623 326.21L12.61 326.239L12.8399 326.269L13.1425 326.31L13.3123 326.337L13.996 326.429L14.6982 326.527L16.6658 326.805L17.344 326.901L17.9501 326.995L18.2953 327.044L19.3671 327.199L20.0757 327.301L29.3 328.645L30.1723 328.775L33.6066 329.277L39.5308 330.15L40.3668 330.274C41.3237 330.413 42.1835 330.535 42.9472 330.653L43.6075 330.751L43.9104 330.796L44.0676 330.816C45.304 331.006 46.0063 331.104 46.0063 331.104Z" fill="#FFA500"/>
<path id="Vector_52" opacity="0.5" d="M46.0063 331.104L44.9019 331.487L42.4131 332.339L33.4003 330.45C24.6809 328.636 14.3317 326.508 12.3623 326.21L12.61 326.239L12.8399 326.269L13.1425 326.31L13.3123 326.337L13.996 326.429L14.6982 326.527L16.6658 326.805L17.344 326.901L17.9501 326.995L18.2953 327.044L19.3671 327.199L20.0757 327.301L29.3 328.645L30.1723 328.775L33.6066 329.277L39.5308 330.15L40.3668 330.274C41.3237 330.413 42.1835 330.535 42.9472 330.653L43.6075 330.751L43.9104 330.796L44.0676 330.816C45.304 331.006 46.0063 331.104 46.0063 331.104Z" fill="white"/>
<path id="Vector_53" d="M42.4131 332.339L35.7504 334.632C35.7504 334.632 20.132 331.025 10.8032 328.723L10.7057 328.703L10.5775 328.672L7.87713 328.004C5.46146 327.379 3.93068 326.961 3.98385 326.882C4.20389 326.511 9.83982 325.95 12.1338 326.196L12.1992 326.19L12.3445 326.211C14.2587 326.494 23.9682 328.485 32.4989 330.261L32.6935 330.299L33.3817 330.444L42.4131 332.339Z" fill="#FFA500"/>
<g id="Group_4" opacity="0.1">
<path id="Vector_54" opacity="0.1" d="M42.4132 332.339L35.7505 334.632C35.7505 334.632 20.132 331.025 10.8032 328.723C12.3435 329.041 28.1298 332.44 31.8646 331.466C32.2134 331.393 32.5361 331.262 32.8041 331.085C33.0721 330.908 33.2769 330.69 33.4003 330.45L42.4132 332.339Z" fill="black"/>
</g>
<path id="Vector_55" d="M59.3648 324.142L43.3086 331.037C43.3086 331.037 42.6487 321.211 42.1853 314.145C42.1649 313.902 42.1448 313.663 42.1251 313.429C42.1053 313.194 42.0925 313.042 42.0766 312.853C41.9148 310.434 41.7925 308.485 41.7359 307.599C41.5563 304.755 41.9474 304.142 43.0732 304.511C44.1991 304.881 49.2674 307.383 50.826 308.557C52.1034 309.518 55.2833 315.739 57.3727 320.021C57.3762 320.062 57.379 320.095 57.4177 320.129C57.5405 320.38 57.6626 320.622 57.7718 320.853C58.7295 322.778 59.3648 324.142 59.3648 324.142Z" fill="#FFA500"/>
<g id="Group_5" opacity="0.1">
<path id="Vector_56" opacity="0.1" d="M59.3648 324.142L43.3086 331.037C43.3086 331.037 42.6487 321.211 42.1853 314.145C44.9315 317.7 50.1694 322.43 57.7956 320.851C58.7295 322.778 59.3648 324.142 59.3648 324.142Z" fill="black"/>
</g>
<path id="Vector_57" d="M32.2718 338.007C30.3249 335.205 37.3171 331.923 45.3001 328.686C53.2832 325.449 132.004 293.966 143.533 290.778C155.061 287.591 168.955 289.467 171.649 293.893C175.691 300.554 161.61 307.607 110.537 327.042C103.842 329.591 73.5958 337.275 56.3486 338.764C37.9017 340.359 33.2299 339.368 32.2718 338.007Z" fill="#FFA500"/>
<path id="Vector_58" opacity="0.5" d="M32.2718 338.007C30.3249 335.205 37.3171 331.923 45.3001 328.686C53.2832 325.449 132.004 293.966 143.533 290.778C155.061 287.591 168.955 289.467 171.649 293.893C175.691 300.554 161.61 307.607 110.537 327.042C103.842 329.591 73.5958 337.275 56.3486 338.764C37.9017 340.359 33.2299 339.368 32.2718 338.007Z" fill="white"/>
<path id="Vector_59" opacity="0.1" d="M110.532 327.059C103.837 329.608 73.5909 337.288 56.344 338.781C37.9031 340.375 33.2327 339.401 32.2732 338.024C31.2526 336.56 32.6793 334.961 35.4174 333.305C35.4235 333.605 35.5236 333.896 35.7106 334.159C36.5878 335.411 40.8257 336.293 57.5562 334.847C73.2055 333.492 94.9797 322.817 101.049 320.508C147.391 302.854 165.859 300.156 162.174 294.123C160.576 291.49 154.636 289.856 147.798 289.848C158.25 288.089 169.275 289.999 171.643 293.901C175.685 300.555 161.604 307.607 110.532 327.059Z" fill="black"/>
<path id="Vector_60" d="M57.0685 326.141L58.8747 325.426L59.0341 327.318L57.2275 328.03L57.0685 326.141Z" fill="#455A64"/>
<path id="Vector_61" d="M60.3689 324.84L62.3027 324.077L62.462 325.969L60.5279 326.729L60.3689 324.84Z" fill="#455A64"/>
<path id="Vector_62" d="M63.7908 323.491L65.7246 322.728L65.884 324.62L63.9498 325.38L63.7908 323.491Z" fill="#455A64"/>
<path id="Vector_63" d="M67.2187 322.142L69.1466 321.379L69.306 323.271L67.3777 324.03L67.2187 322.142Z" fill="#455A64"/>
<path id="Vector_64" d="M70.6407 320.793L72.5745 320.03L72.7339 321.922L70.7997 322.682L70.6407 320.793Z" fill="#455A64"/>
<path id="Vector_65" d="M74.0687 319.444L75.9965 318.681L76.1559 320.573L74.228 321.336L74.0687 319.444Z" fill="#455A64"/>
<path id="Vector_66" d="M77.4907 318.095L79.4245 317.332L79.5838 319.224L77.65 319.988L77.4907 318.095Z" fill="#455A64"/>
<path id="Vector_67" d="M80.9127 316.746L82.8465 315.983L83.0058 317.875L81.072 318.639L80.9127 316.746Z" fill="#455A64"/>
<path id="Vector_68" d="M84.3406 315.397L86.2684 314.634L86.4278 316.526L84.4999 317.29L84.3406 315.397Z" fill="#455A64"/>
<path id="Vector_69" d="M87.7626 314.048L89.6964 313.285L89.8557 315.177L87.9216 315.937L87.7626 314.048Z" fill="#455A64"/>
<path id="Vector_70" d="M91.1905 312.699L93.1184 311.936L93.2777 313.828L91.3495 314.587L91.1905 312.699Z" fill="#455A64"/>
<path id="Vector_71" d="M94.6125 311.35L96.5463 310.587L96.7056 312.479L94.7715 313.239L94.6125 311.35Z" fill="#455A64"/>
<path id="Vector_72" d="M98.0345 310.001L99.9686 309.242L100.128 311.13L98.1935 311.89L98.0345 310.001Z" fill="#455A64"/>
<path id="Vector_73" d="M101.462 308.652L103.391 307.893L103.55 309.782L101.621 310.541L101.462 308.652Z" fill="#455A64"/>
<path id="Vector_74" d="M104.884 307.303L106.819 306.544L106.978 308.432L105.043 309.192L104.884 307.303Z" fill="#455A64"/>
<path id="Vector_75" d="M108.306 305.955L110.241 305.195L110.4 307.083L108.466 307.847L108.306 305.955Z" fill="#455A64"/>
<path id="Vector_76" d="M111.734 304.605L113.668 303.846L113.827 305.734L111.894 306.498L111.734 304.605Z" fill="#455A64"/>
<path id="Vector_77" d="M115.156 303.256L117.09 302.497L117.249 304.385L115.316 305.149L115.156 303.256Z" fill="#455A64"/>
<path id="Vector_78" d="M118.584 301.907L120.512 301.148L120.671 303.037L118.744 303.8L118.584 301.907Z" fill="#455A64"/>
<path id="Vector_79" d="M122.006 300.558L123.94 299.799L124.099 301.687L122.166 302.451L122.006 300.558Z" fill="#455A64"/>
<path id="Vector_80" d="M125.428 299.21L127.362 298.45L127.521 300.338L125.588 301.102L125.428 299.21Z" fill="#455A64"/>
<path id="Vector_81" d="M130.79 297.101L130.949 298.989L129.015 299.753L128.856 297.86L130.79 297.101Z" fill="#455A64"/>
<path id="Vector_82" d="M134.212 295.752L134.371 297.64L132.437 298.404L132.278 296.512L134.212 295.752Z" fill="#455A64"/>
<path id="Vector_83" d="M137.634 294.403L137.793 296.292L135.865 297.055L135.706 295.162L137.634 294.403Z" fill="#455A64"/>
<path id="Vector_84" d="M141.062 293.054L141.221 294.942L139.287 295.706L139.128 293.813L141.062 293.054Z" fill="#455A64"/>
<path id="Vector_85" d="M150.175 291.508C151.217 290.841 152.439 290.33 153.758 290.009L153.861 291.243C152.685 291.334 151.471 291.415 150.175 291.508Z" fill="#455A64"/>
<path id="Vector_86" d="M158.051 289.345L158.197 291.081C157.265 291.101 156.342 291.142 155.406 291.187L155.278 289.669C156.191 289.5 157.119 289.391 158.051 289.345V289.345Z" fill="#455A64"/>
<path id="Vector_87" d="M167.09 291.053C166.312 291.119 165.59 291.072 164.873 291.074C164.155 291.076 163.452 291.044 162.754 291.058C161.735 291.036 160.73 291.046 159.763 291.061L159.616 289.325C160.835 289.337 162.036 289.46 163.189 289.691C163.904 289.83 164.596 290.013 165.257 290.238C165.593 290.345 165.916 290.47 166.222 290.612C166.503 290.754 166.808 290.895 167.09 291.053Z" fill="#455A64"/>
<path id="Vector_88" d="M105.26 311.759L82.6272 321.479C82.6272 321.479 44.4627 310.854 17.0647 303.051L17.0033 303.031C2.37959 298.876 -8.79541 295.608 -8.63072 295.432C-8.21984 294.983 -1.08777 294.429 1.75634 294.458C2.03049 294.454 2.30339 294.464 2.57253 294.489C3.77962 294.615 46.5685 301.831 76.5247 306.907L105.26 311.759Z" fill="#FFA500"/>
<g id="Group_6" opacity="0.1">
<path id="Vector_89" opacity="0.1" d="M105.26 311.759L82.6273 321.479C82.6273 321.479 44.4628 310.854 17.0648 303.051C19.2048 303.6 68.2147 316.208 74.2242 313.191C76.4913 312.052 76.9103 309.568 76.5118 306.896L105.26 311.759Z" fill="black"/>
</g>
<path id="Vector_90" d="M108.569 310.424L101.849 313.31C83.7263 309.665 8.4486 295.714 2.15811 294.541L1.96352 294.503L1.80631 294.483L1.75284 294.488C2.02698 294.483 2.29988 294.493 2.56902 294.518C4.42701 294.702 108.569 310.424 108.569 310.424Z" fill="#FFA500"/>
<path id="Vector_91" opacity="0.5" d="M108.569 310.424L101.849 313.31C83.7263 309.665 8.4486 295.714 2.15811 294.541L1.96352 294.503L1.80631 294.483L1.75284 294.488C2.02698 294.483 2.29988 294.493 2.56902 294.518C4.42701 294.702 108.569 310.424 108.569 310.424Z" fill="white"/>
<path id="Vector_92" d="M58.7324 314.997C56.5218 315.954 54.0953 316.763 53.7837 315.194C53.6577 314.55 54.3239 313.794 57.8864 312.267C58.7176 311.907 60.7786 311.092 61.4852 312.379C62.1918 313.666 59.5695 314.636 58.7324 314.997Z" fill="#FFA500"/>
<path id="Vector_93" opacity="0.1" d="M58.7324 314.997C56.5218 315.954 54.0953 316.763 53.7837 315.194C53.6577 314.55 54.3239 313.794 57.8864 312.267C58.7176 311.907 60.7786 311.092 61.4852 312.379C62.1918 313.666 59.5695 314.636 58.7324 314.997Z" fill="black"/>
<path id="Vector_94" d="M38.4482 309.761C36.2375 310.718 33.811 311.527 33.4994 309.958C33.3734 309.314 34.0399 308.562 37.6022 307.031C38.4333 306.671 40.4947 305.86 41.2009 307.142C41.9072 308.425 39.2853 309.4 38.4482 309.761Z" fill="#FFA500"/>
<path id="Vector_95" opacity="0.1" d="M38.4482 309.761C36.2375 310.718 33.811 311.527 33.4994 309.958C33.3734 309.314 34.0399 308.562 37.6022 307.031C38.4333 306.671 40.4947 305.86 41.2009 307.142C41.9072 308.425 39.2853 309.4 38.4482 309.761Z" fill="black"/>
<path id="Vector_96" d="M18.0976 304.447C16.0372 305.342 13.7736 306.096 13.4829 304.633C13.3667 304.034 13.973 303.349 17.3035 301.908C18.0829 301.573 19.9874 300.816 20.6609 301.994C21.3344 303.172 18.8714 304.117 18.0976 304.447Z" fill="#FFA500"/>
<path id="Vector_97" opacity="0.1" d="M18.0976 304.447C16.0372 305.342 13.7736 306.096 13.4829 304.633C13.3667 304.034 13.973 303.349 17.3035 301.908C18.0829 301.573 19.9874 300.816 20.6609 301.994C21.3344 303.172 18.8714 304.117 18.0976 304.447Z" fill="black"/>
<path id="Vector_98" d="M87.9989 310.958C86.4029 313.318 82.3948 314.455 79.8815 315.371C73.2037 317.839 68.3393 319.321 65.5118 315.226C65.1774 314.754 64.949 314.245 64.8343 313.717C64.1574 310.509 68.8741 308.479 71.2578 307.375C74.1368 306.043 76.1804 305.163 77.7102 304.574C80.2018 303.614 81.3357 303.44 82.5021 303.296C83.8834 303.147 87.0225 303.127 88.3841 307.006C88.9388 308.284 88.8021 309.686 87.9989 310.958V310.958Z" fill="#FFA500"/>
<path id="Vector_99" d="M83.3199 312.653C86.01 312.427 88.026 310.285 87.8226 307.87C87.6193 305.455 85.2736 303.68 82.5834 303.907C79.8933 304.133 77.8773 306.275 78.0807 308.69C78.284 311.105 80.6297 312.88 83.3199 312.653Z" fill="#263238"/>
<path id="Vector_100" d="M87.2524 307.918C87.4322 310.053 85.653 311.943 83.2769 312.143C80.9008 312.343 78.8248 310.778 78.645 308.643C78.4652 306.507 80.2503 304.617 82.6264 304.417C85.0025 304.217 87.0726 305.783 87.2524 307.918Z" fill="#455A64"/>
<path id="Vector_101" d="M14.6989 326.535L13.9967 326.437L14.6989 326.535Z" fill="#FFA500"/>
</g>
</g>
<defs>
<clipPath id="clip0">
<rect width="500" height="500" fill="white"/>
</clipPath>
</defs>
</svg>
