<svg width="1058" height="785" viewBox="0 0 1058 785" fill="none" xmlns="http://www.w3.org/2000/svg">
<g id="undraw_Ride_a_bicycle_2yok 1">
<g id="left-wheel">
<path id="Vector" d="M250.725 746.778L244.455 648.838L244.325 648.628L238.005 650.828L208.925 735.678L162.675 702.888L236.345 649.478L236.415 649.268L236.835 649.118L241.585 645.668L164.345 602.358L145.425 623.158L148.425 642.658L237.245 644.278V646.278L146.765 644.658L143.345 622.518L169.245 594.058L207.995 548.858L208.685 550.728L216.885 541.728L247.345 547.188V545.978L249.345 546.038V547.548L294.705 555.668L252.415 640.278L246.245 644.748V645.248V645.808L344.045 611.728L332.435 702.938L249.435 650.068L246.515 648.428L295.455 727.308L250.725 746.778ZM246.725 652.438L252.575 743.818L292.625 726.438L246.725 652.438ZM166.145 702.868L207.935 732.498L235.275 652.758L166.145 702.868ZM248.465 647.208L250.555 648.378L330.905 699.578L341.705 614.708L248.465 647.208ZM241.365 640.008L243.875 644.058L244.315 643.738L247.315 549.208L217.575 543.888L209.415 552.888L241.365 640.008ZM165.945 600.948L240.785 642.948L239.485 640.818L207.905 554.548L170.715 595.418L165.945 600.948ZM249.345 549.558L246.345 642.278L250.865 638.998L291.775 557.178L249.345 549.558Z" fill="#E99D2B"/>
<path id="Vector_2" d="M360.415 619.738C356.405 601.919 348.285 585.283 336.705 571.158C332.406 565.909 327.666 561.038 322.535 556.598C302.809 539.567 277.986 529.568 251.962 528.17C225.938 526.771 200.187 534.053 178.749 548.873C157.311 563.693 141.401 585.211 133.515 610.05C125.629 634.89 126.214 661.645 135.178 686.116C144.142 710.587 160.978 731.39 183.042 745.258C205.107 759.127 231.152 765.277 257.09 762.743C283.028 760.208 307.39 749.134 326.353 731.257C345.317 713.379 357.807 689.712 361.865 663.968C362.809 657.907 363.284 651.783 363.285 645.648C363.292 636.932 362.329 628.242 360.415 619.738ZM245.225 734.088C226.993 734.069 209.209 728.435 194.292 717.953C179.374 707.47 168.047 692.648 161.851 675.501C155.655 658.354 154.89 639.715 159.66 622.118C164.43 604.521 174.505 588.82 188.513 577.15C202.521 565.48 219.783 558.408 237.953 556.895C256.122 555.381 274.316 559.501 290.062 568.693C305.807 577.884 318.34 591.703 325.956 608.268C333.571 624.834 335.9 643.343 332.625 661.278C328.875 681.722 318.076 700.203 302.107 713.506C286.137 726.809 266.01 734.093 245.225 734.088Z" fill="#535461"/>
<path id="Vector_3" opacity="0.1" d="M246.835 658.058C253.91 658.058 259.645 652.323 259.645 645.248C259.645 638.174 253.91 632.438 246.835 632.438C239.76 632.438 234.025 638.174 234.025 645.248C234.025 652.323 239.76 658.058 246.835 658.058Z" fill="#E99D2B"/>
</g>
<g id="right-wheel">
<path id="Vector_4" d="M675.847 747.78L669.587 649.88L669.457 649.67L663.137 651.87L634.047 736.68L587.797 703.88L661.487 650.47L661.557 650.26L661.977 650.11L666.727 646.66L589.487 603.35L570.557 624.15L573.557 643.65L662.357 645.23V647.23L571.877 645.61L568.477 623.5L594.367 595.05L633.087 549.88L633.777 551.75L641.977 542.75L672.517 548.22V547.01L674.517 547.07V548.58L719.877 556.7L677.547 641.35L671.377 645.82V646.32V646.88L769.187 612.8L757.577 704.01L674.577 651.14L671.657 649.5L720.597 728.39L675.847 747.78ZM671.847 653.44L677.697 744.82L717.747 727.44L671.847 653.44ZM591.277 703.88L633.067 733.51L660.407 653.77L591.277 703.88ZM673.597 648.22L675.687 649.39L756.037 700.59L766.837 615.72L673.597 648.22ZM666.497 641.02L669.007 645.07L669.447 644.75L672.447 550.22L642.707 544.88L634.547 553.88L666.497 641.02ZM591.107 601.97L665.947 643.97L664.647 641.84L633.067 555.57L595.867 596.45L591.107 601.97ZM674.477 550.58L671.477 643.27L675.997 639.99L716.907 558.17L674.477 550.58Z" fill="#E99D2B"/>
<path id="Vector_5" d="M670.757 529C660.144 528.988 649.578 530.415 639.347 533.24C634.071 534.695 628.904 536.523 623.887 538.71C597.157 550.297 575.674 571.387 563.594 597.898C551.514 624.41 549.697 654.459 558.492 682.233C567.287 710.008 586.071 733.533 611.209 748.259C636.348 762.984 666.054 767.863 694.582 761.952C723.109 756.04 748.431 739.759 765.648 716.257C782.865 692.755 790.754 663.702 787.789 634.72C784.823 605.738 771.215 578.885 749.595 559.356C727.975 539.828 699.881 529.012 670.747 529H670.757ZM670.357 735.09C650.076 735.082 630.408 728.137 614.62 715.407C598.831 702.678 587.872 684.931 583.562 665.113C579.252 645.295 581.851 624.599 590.928 606.463C600.004 588.326 615.011 573.84 633.457 565.41C638.149 563.262 643.021 561.532 648.017 560.24C660.229 557.07 672.977 556.537 685.411 558.678C697.845 560.818 709.681 565.581 720.13 572.652C730.58 579.722 739.404 588.937 746.015 599.683C752.627 610.429 756.873 622.46 758.473 634.975C760.073 647.49 758.989 660.202 755.293 672.265C751.598 684.329 745.375 695.467 737.04 704.939C728.704 714.41 718.447 721.998 706.951 727.196C695.455 732.395 682.984 735.086 670.367 735.09H670.357Z" fill="#535461"/>
<path id="Vector_6" d="M670.357 659.06C677.432 659.06 683.167 653.325 683.167 646.25C683.167 639.175 677.432 633.44 670.357 633.44C663.282 633.44 657.547 639.175 657.547 646.25C657.547 653.325 663.282 659.06 670.357 659.06Z" fill="#E99D2B"/>
</g>
<g id="man-bike">
<path id="Vector_7" d="M383.08 586.194L340.373 544.05L327.027 557.574L369.734 599.718L383.08 586.194Z" fill="#535461"/>
<path id="Vector_8" d="M350.56 523.881C350.56 523.881 375.35 510.801 384.93 502.381C390.697 497.335 396.898 492.808 403.46 488.851L434.56 469.921L499.56 464.921L502.56 475.921C502.56 475.921 507.56 491.921 457.56 505.921C407.56 519.921 382.56 541.921 382.56 541.921C382.56 541.921 350.56 552.881 350.56 523.881Z" fill="#DB8B8B"/>
<path id="Vector_9" opacity="0.1" d="M385.21 539.751C383.44 541.101 382.56 541.881 382.56 541.881C382.56 541.881 350.56 552.881 350.56 523.881C350.56 523.881 352.11 523.061 354.56 521.691C357.035 525.721 360.503 529.05 364.631 531.359C368.759 533.669 373.41 534.881 378.14 534.881H381.53L385.21 539.751Z" fill="black"/>
<path id="Vector_10" opacity="0.05" d="M501.62 481.441C498.84 487.331 489.25 497.011 457.56 505.881C416.95 517.251 392.83 533.881 385.21 539.751C383.44 541.101 382.56 541.881 382.56 541.881C382.56 541.881 350.56 552.881 350.56 523.881C350.56 523.881 352.11 523.061 354.56 521.691C361.99 517.621 377.72 508.691 384.9 502.341C390.666 497.294 396.867 492.766 403.43 488.811L434.53 469.881L446.11 468.991L499.53 464.881L502.53 475.881C502.53 475.881 503.23 478.031 501.62 481.441Z" fill="black"/>
<path id="Vector_11" d="M351.06 517.381L324.56 534.881L402.16 599.881C402.16 599.881 413.56 592.881 407.56 584.881C407.56 584.881 387.56 567.881 386.56 543.881L380.56 535.881H377.17C371.438 535.882 365.847 534.102 361.169 530.788C356.492 527.474 352.96 522.789 351.06 517.381Z" fill="#E99D2B"/>
<path id="Vector_12" opacity="0.1" d="M501.62 481.441C485.62 473.711 446.56 472.881 446.56 472.881L446.14 468.991L499.56 464.881L502.56 475.881C502.56 475.881 503.23 478.031 501.62 481.441Z" fill="black"/>
<path id="Vector_13" d="M446.56 470.881C446.56 470.881 493.56 471.881 505.56 481.881L499.56 360.881H434.56L446.56 470.881Z" fill="#ABB1D1"/>
<path id="Vector_14" opacity="0.05" d="M446.56 470.381C446.56 470.381 493.56 471.381 505.56 481.381L499.56 360.381H434.56L446.56 470.381Z" fill="black"/>
<path id="Vector_15" d="M484.32 396.841C484.32 396.841 601.97 392.841 604.37 408.051C606.77 423.261 486.72 416.851 486.72 416.851C486.72 416.851 477.12 407.241 484.32 396.841Z" fill="#535461"/>
<path id="Vector_16" opacity="0.05" d="M484.32 396.841C484.32 396.841 601.97 392.841 604.37 408.051C606.77 423.261 486.72 416.851 486.72 416.851C486.72 416.851 477.12 407.241 484.32 396.841Z" fill="black"/>
<path id="Vector_17" d="M389.08 457.671H368.27V638.551H389.08V457.671Z" fill="#595959"/>
<path id="Vector_18" opacity="0.1" d="M389.08 457.661V471.591C382.16 472.491 375.08 473.061 368.27 473.281V457.661H389.08Z" fill="black"/>
<path id="Vector_19" d="M387.52 442.671C384.6 442.445 381.696 442.054 378.82 441.501C367.54 439.341 339.1 434.811 331.45 442.501C321.85 452.101 325.05 468.911 350.66 471.311C376.27 473.711 420.29 467.311 429.1 457.701C429.1 457.661 413.17 444.641 387.52 442.671Z" fill="#E99D2B"/>
<path id="Vector_20" d="M387.98 510.281L606.48 442.251L613.68 459.061L389.58 535.891L387.98 510.281Z" fill="#595959"/>
<path id="Vector_21" d="M448.31 614.541L605.98 459.271L614.78 472.071L464.31 628.941L448.31 614.541Z" fill="#595959"/>
<path id="Vector_22" opacity="0.1" d="M649.66 561.741C644.664 563.033 639.792 564.763 635.1 566.911L625.54 540.201C630.557 538.014 635.724 536.186 641 534.731L649.66 561.741Z" fill="black"/>
<path id="Vector_23" d="M676.41 640.151L665.21 646.551L587.07 428.221L583.57 418.451L601.98 408.041L606.59 422.421L676.41 640.151Z" fill="#595959"/>
<path id="Vector_24" opacity="0.1" d="M606.59 422.421L587.07 428.221L583.57 418.451L601.98 408.041L606.59 422.421Z" fill="black"/>
<path id="Vector_25" d="M487.52 439.261L597.17 401.641C597.17 401.641 616.38 404.041 609.17 420.051L498.73 452.861C498.73 452.861 481.93 454.461 487.52 439.261Z" fill="#535461"/>
<path id="Vector_26" opacity="0.1" d="M363.87 647.751C363.869 653.885 363.394 660.01 362.45 666.071C352.85 665.381 342.93 664.381 333.21 663.381C335.369 651.49 335.101 639.285 332.42 627.501C341.89 625.501 351.56 623.591 361 621.861C362.913 630.358 363.875 639.041 363.87 647.751Z" fill="black"/>
<path id="Vector_27" opacity="0.1" d="M389.08 617.271V638.541H368.27V620.541C375.47 619.291 382.47 618.181 389.08 617.271Z" fill="black"/>
<path id="Vector_28" d="M254.62 647.381C254.62 647.381 422.7 603.381 436.3 620.171C449.9 636.961 464.31 659.381 421.93 667.381C379.55 675.381 251.45 653.771 251.45 653.771L254.62 647.381Z" fill="#595959"/>
<path id="Vector_29" opacity="0.1" d="M337.29 573.261L315.93 592.811C312.147 587.955 307.871 583.504 303.17 579.531L323.11 558.701C328.244 563.14 332.988 568.011 337.29 573.261Z" fill="black"/>
<path id="Vector_30" d="M246.515 637.151L372.165 505.891L376.175 536.301L252.915 649.151L246.515 637.151Z" fill="#595959"/>
<path id="Vector_31" d="M245.81 660.161C252.885 660.161 258.62 654.426 258.62 647.351C258.62 640.276 252.885 634.541 245.81 634.541C238.735 634.541 233 640.276 233 647.351C233 654.426 238.735 660.161 245.81 660.161Z" fill="#535461"/>
<path id="Vector_32" opacity="0.1" d="M671.21 658.961C678.285 658.961 684.02 653.226 684.02 646.151C684.02 639.076 678.285 633.341 671.21 633.341C664.135 633.341 658.4 639.076 658.4 646.151C658.4 653.226 664.135 658.961 671.21 658.961Z" fill="black"/>
<path id="Vector_33" opacity="0.1" d="M444.3 660.161C458.444 660.161 469.91 648.695 469.91 634.551C469.91 620.407 458.444 608.941 444.3 608.941C430.156 608.941 418.69 620.407 418.69 634.551C418.69 648.695 430.156 660.161 444.3 660.161Z" fill="black"/>
<path id="Vector_34" d="M445.91 660.161C460.054 660.161 471.52 648.695 471.52 634.551C471.52 620.407 460.054 608.941 445.91 608.941C431.766 608.941 420.3 620.407 420.3 634.551C420.3 648.695 431.766 660.161 445.91 660.161Z" fill="#535461"/>
<path id="Vector_35" d="M439.072 632.627L439.064 632.633C436.057 634.882 435.442 639.143 437.691 642.151L458.017 669.331C460.266 672.339 464.527 672.954 467.535 670.705L467.543 670.699C470.551 668.449 471.165 664.188 468.916 661.181L448.59 634C446.341 630.993 442.08 630.378 439.072 632.627Z" fill="#6C63FF"/>
<path id="Vector_36" d="M561.56 278.881L559.18 308.991C558.906 312.805 558.956 316.635 559.33 320.441C559.64 323.811 559.33 329.711 556.03 338.711C551.793 350.208 549.603 362.358 549.56 374.611V408.881L526.56 404.881C526.56 404.881 527.56 356.881 523.56 348.881C519.56 340.881 526.56 269.881 526.56 269.881L561.56 278.881Z" fill="#DB8B8B"/>
<path id="Vector_37" opacity="0.05" d="M560.38 293.801L559.18 308.991C558.91 312.802 558.963 316.629 559.34 320.431C559.65 323.801 559.34 329.701 556.04 338.711C551.803 350.208 549.613 362.358 549.57 374.611V408.881L526.57 404.881C526.57 404.881 527.57 356.881 523.57 348.881C520.74 343.211 523.42 305.941 525.23 284.671C525.98 275.921 526.57 269.881 526.57 269.881L561.57 278.881L560.38 293.801Z" fill="black"/>
<path id="Vector_38" d="M447.58 508.881L438.93 558.081C437.839 564.65 436.166 571.109 433.93 577.381C428.86 591.241 432.1 610.671 434.56 621.271C435.65 625.951 436.56 628.911 436.56 628.911L410.56 642.911L402.56 636.911V632.911L401.56 543.911C395.56 529.911 397.56 508.911 401.56 500.911C402.697 498.282 403.497 495.52 403.94 492.691C405.94 481.971 406.56 466.911 406.56 466.911C406.56 466.911 422.56 439.911 441.56 457.911C448.56 464.541 451.22 473.211 451.78 481.511C452.76 495.721 447.58 508.881 447.58 508.881Z" fill="#DB8B8B"/>
<path id="Vector_39" opacity="0.1" d="M451.78 481.481C437.91 489.721 413.78 492.051 403.94 492.661C405.94 481.941 406.56 466.881 406.56 466.881C406.56 466.881 422.56 439.881 441.56 457.881C448.56 464.511 451.22 473.181 451.78 481.481Z" fill="black"/>
<path id="Vector_40" d="M473.305 454.891C462.671 460.554 452.622 467.253 443.305 474.891C427.305 487.891 387.305 488.891 387.305 488.891V473.891C388.305 455.891 371.305 435.891 348.305 379.891C333.615 344.131 337.685 323.891 342.545 313.891C345.305 308.241 348.305 305.891 348.305 305.891L473.305 329.891L477.775 343.291L487.305 371.891C487.305 371.891 452.305 373.891 446.305 376.891C440.305 379.891 444.305 406.891 444.305 406.891C438.305 434.891 473.305 454.891 473.305 454.891Z" fill="#ABB1D1"/>
<path id="Vector_41" opacity="0.1" d="M561.56 278.881L560.38 293.801C542.98 298.801 530.56 282.881 530.56 282.881C528.745 283.367 526.962 283.965 525.22 284.671C525.97 275.921 526.56 269.881 526.56 269.881L561.56 278.881Z" fill="black"/>
<path id="Vector_42" opacity="0.1" d="M490.03 345.281C489.56 349.951 489.56 352.881 489.56 352.881C489.56 352.881 466.56 371.881 427.56 342.881C388.56 313.881 353.56 321.881 353.56 321.881C353.56 321.881 353.97 319.561 354.8 315.881C357.56 310.231 360.56 307.881 360.56 307.881L485.56 331.881L490.03 345.281Z" fill="black"/>
<path id="Vector_43" d="M575.04 239.831C572.43 260.181 571.56 285.831 571.56 285.831C548.56 303.831 530.56 280.831 530.56 280.831C508.84 286.661 498.63 305.671 493.82 322.261C491.244 331.235 489.812 340.498 489.56 349.831C489.56 349.831 483.48 354.831 472.28 355.831C461.69 356.721 446.51 353.961 427.56 339.831C388.56 310.831 353.56 318.831 353.56 318.831C353.56 318.831 360.56 278.831 376.56 266.831C392.56 254.831 404.56 239.831 424.56 193.831C444.56 147.831 485.56 158.831 485.56 158.831C485.56 158.831 487.56 149.831 524.56 158.831C533.572 161.193 541.914 165.612 548.93 171.741C568.72 188.381 578.32 214.191 575.04 239.831Z" fill="white"/>
<path id="Vector_44" d="M537.93 181.381C537.88 182.711 537.77 184.191 537.59 185.841C535.59 203.841 533.59 201.841 511.59 205.841C497.91 208.331 490.8 196.901 487.38 187.901C486.142 184.641 485.208 181.273 484.59 177.841L532.59 169.841C532.59 169.841 538.34 168.231 537.93 181.381Z" fill="#DB8B8B"/>
<path id="Vector_45" opacity="0.05" d="M493.82 322.311C491.244 331.285 489.812 340.548 489.56 349.881C489.56 349.881 483.48 354.881 472.28 355.881C471.964 355.244 471.723 354.573 471.56 353.881C469.56 344.881 454.56 328.881 454.56 328.881C444.56 319.881 442.56 303.881 442.56 303.881L426.06 255.381L420.56 250.881C420.56 250.881 443.56 232.881 463.56 247.881C483.56 262.881 477.56 294.881 477.56 294.881L481.56 305.881C485.71 309.381 489.93 315.551 493.82 322.311Z" fill="black"/>
<path id="Vector_46" d="M423.56 249.881L445.56 302.881C445.56 302.881 447.56 318.881 457.56 327.881C457.56 327.881 472.56 343.881 474.56 352.881C476.56 361.881 504.56 385.881 504.56 385.881C504.56 385.881 530.56 409.881 532.56 418.881C532.56 418.881 556.56 425.881 553.56 439.881C553.56 439.881 571.56 421.881 553.56 404.881C535.56 387.881 511.56 352.881 511.56 352.881C511.56 352.881 497.56 315.881 484.56 304.881L480.56 293.881C480.56 293.881 486.56 261.881 466.56 246.881C446.56 231.881 423.56 249.881 423.56 249.881Z" fill="#DB8B8B"/>
<path id="Vector_47" opacity="0.1" d="M436.56 628.881L410.56 642.881L402.56 636.881V632.881C411.544 632.243 420.273 629.609 428.11 625.171C430.51 623.811 432.77 622.471 434.58 621.291C435.63 625.921 436.56 628.881 436.56 628.881Z" fill="black"/>
<path id="Vector_48" opacity="0.1" d="M466.56 207.881L480.56 262.881C480.56 262.881 437.56 269.881 428.56 262.881C419.56 255.881 402.56 253.881 402.56 253.881C402.56 253.881 420.56 201.881 430.56 195.881C440.56 189.881 466.56 207.881 466.56 207.881Z" fill="black"/>
<path id="Vector_49" d="M466.56 205.881L480.56 260.881C480.56 260.881 437.56 267.881 428.56 260.881C419.56 253.881 402.56 251.881 402.56 251.881C402.56 251.881 420.56 199.881 430.56 193.881C440.56 187.881 466.56 205.881 466.56 205.881Z" fill="white"/>
<path id="Vector_50" opacity="0.1" d="M537.93 180.381C535.129 184.247 531.567 187.499 527.463 189.938C523.358 192.376 518.798 193.949 514.063 194.56C509.328 195.171 504.519 194.806 499.93 193.489C495.341 192.172 491.07 189.93 487.38 186.901C486.142 183.641 485.208 180.273 484.59 176.841L532.59 168.841C532.59 168.841 538.34 167.231 537.93 180.381Z" fill="black"/>
<path id="Vector_51" d="M544.56 158.881C544.56 168.163 540.873 177.066 534.309 183.63C527.745 190.193 518.843 193.881 509.56 193.881C500.277 193.881 491.375 190.193 484.811 183.63C478.248 177.066 474.56 168.163 474.56 158.881C474.56 158.301 474.56 157.721 474.56 157.141C474.791 147.858 478.7 139.048 485.426 132.647C492.153 126.246 501.147 122.78 510.43 123.011C519.713 123.242 528.523 127.15 534.924 133.877C541.325 140.604 544.791 149.598 544.56 158.881Z" fill="#DB8B8B"/>
<path id="Vector_52" opacity="0.1" d="M544.56 158.881C544.563 162.107 544.119 165.317 543.24 168.421C540.535 169.01 537.713 168.752 535.16 167.681C531.42 166.211 528.21 163.681 524.62 161.861C514.51 156.741 502.48 157.751 491.28 159.441C485.72 160.281 479.41 161.061 475.04 157.521C474.89 157.402 474.746 157.275 474.61 157.141C474.841 147.858 478.75 139.048 485.476 132.647C492.203 126.246 501.197 122.78 510.48 123.011C519.763 123.242 528.573 127.15 534.974 133.877C541.375 140.604 544.841 149.598 544.61 158.881H544.56Z" fill="black"/>
<path id="Vector_53" opacity="0.05" d="M381.06 266.381C381.06 266.381 407.06 273.381 415.06 291.381C423.06 309.381 444.7 312.671 444.7 312.671" fill="black"/>
<path id="Vector_54" d="M479.06 662.381H419.06V681.381H479.06V662.381Z" fill="#535461"/>
<path id="Vector_55" d="M428.07 627.121C433.44 624.121 438.15 621.121 438.56 619.881C438.56 619.881 452.11 634.181 464.18 638.621C468.239 640.12 472.124 642.051 475.77 644.381C480.55 647.381 487.37 650.911 493.56 650.911C493.56 650.911 507.56 662.911 480.56 664.911C453.56 666.911 390.56 659.911 390.56 659.911L394.56 634.911C406.247 635.596 417.884 632.891 428.07 627.121Z" fill="#ABB1D1"/>
</g>
<g id="hat">
<path id="Hat" d="M450.624 139.927C452.754 146.607 462.984 146.817 468.234 151.737C470.964 154.297 472.234 158.077 475.234 160.357C479.404 163.537 485.424 162.837 490.734 162.077C501.424 160.557 512.904 159.647 522.544 164.257C525.964 165.887 529.034 168.167 532.604 169.497C536.174 170.827 540.604 170.987 543.504 168.627C545.824 166.737 546.674 163.627 548.774 161.547C550.404 159.907 552.674 158.987 554.534 157.547C558.614 154.467 560.374 149.447 561.534 144.647C563.934 134.767 564.624 124.117 560.534 114.747C556.444 105.377 546.604 97.7467 535.864 98.2367C532.574 98.3867 529.364 99.2367 526.084 99.5967C517.534 100.467 509.084 97.5967 500.504 97.1067C498.015 96.8039 495.49 97.1483 493.174 98.1067C491.427 99.0775 489.92 100.427 488.764 102.057C484.836 107.202 482.146 113.184 480.904 119.537C479.904 124.327 479.854 128.667 473.984 129.407C467.314 130.287 446.114 125.797 450.624 139.927Z" fill="#472727"/>
</g>
<g id="map">
<g id="g264">
<g id="g266">
<path id="path274" d="M229.814 89.1289V178.571L191.497 156.392C186.95 153.761 181.589 154.04 177.265 157.134C172.94 160.228 170.327 165.653 170.327 171.538V293.459C170.327 301.789 175.601 308.914 182.712 310.192L198.608 313.047V372.326L181.32 377.46C174.859 379.379 170.327 386.141 170.327 393.863C170.699 393.59 199.583 407 199.583 407L216.871 401.866C223.332 399.947 227.864 393.185 227.864 385.464V298.539C227.864 290.208 222.59 283.083 215.479 281.806L199.583 278.95V198.937L237.9 221.115C242.447 223.747 247.808 223.468 252.132 220.374C256.457 217.28 259.07 211.854 259.07 205.969V89.1289H229.814Z" fill="#E99D2B"/>
<path id="path278" d="M234.69 89.1289V187.703L189.316 161.441C186.285 159.686 182.711 159.873 179.828 161.935C176.945 163.998 175.203 167.615 175.203 171.538V293.459C175.203 299.012 178.719 303.763 183.46 304.614L203.484 308.211V376.705L182.532 382.927C178.224 384.206 175.203 388.715 175.203 393.862C175.203 393.862 194.707 403.538 194.707 402.621L215.659 396.398C219.966 395.119 222.988 390.611 222.988 385.464V298.539C222.988 292.985 219.472 288.235 214.731 287.383L194.707 283.786V189.804L240.081 216.066C243.112 217.821 246.686 217.635 249.569 215.572C252.452 213.51 254.194 209.893 254.194 205.969V89.1289H234.69Z" fill="#949494"/>
<path id="path280" d="M243.954 89.1289V98.16C243.954 98.7836 244.391 99.2889 244.93 99.2889C245.468 99.2889 245.905 98.7836 245.905 98.16V89.1289C245.905 88.5053 245.468 88 244.93 88C244.391 88 243.954 88.5053 243.954 89.1289Z" fill="white"/>
<path id="path282" d="M243.954 117.916V137.671C243.954 138.295 244.391 138.8 244.93 138.8C245.468 138.8 245.905 138.295 245.905 137.671V117.916C245.905 117.292 245.468 116.787 244.93 116.787C244.391 116.787 243.954 117.292 243.954 117.916ZM243.954 157.427V177.183C243.954 177.806 244.391 178.312 244.93 178.312C245.468 178.312 245.905 177.806 245.905 177.183V157.427C245.905 156.803 245.468 156.298 244.93 156.298C244.391 156.298 243.954 156.803 243.954 157.427Z" fill="white"/>
<path id="path284" d="M243.954 196.938V204.143L238.388 200.921C237.906 200.642 237.321 200.868 237.08 201.426C236.839 201.983 237.034 202.662 237.516 202.941L244.494 206.979C244.796 207.155 245.154 207.136 245.442 206.93C245.731 206.724 245.905 206.362 245.905 205.969V196.938C245.905 196.315 245.468 195.809 244.929 195.809C244.391 195.809 243.954 196.315 243.954 196.938Z" fill="white"/>
<path id="path286" d="M223.211 192.137L208.034 183.352C207.552 183.073 206.967 183.299 206.726 183.857C206.485 184.414 206.68 185.092 207.162 185.372L222.339 194.156C222.82 194.435 223.406 194.209 223.647 193.651C223.888 193.093 223.693 192.415 223.211 192.137" fill="white"/>
<path id="path288" d="M192.857 174.567L185.879 170.528C185.576 170.353 185.218 170.371 184.93 170.578C184.642 170.784 184.467 171.146 184.467 171.538V180.569C184.467 181.193 184.904 181.698 185.443 181.698C185.981 181.698 186.418 181.193 186.418 180.569V173.365L191.984 176.587C192.466 176.865 193.052 176.64 193.292 176.082C193.533 175.524 193.338 174.846 192.857 174.567Z" fill="white"/>
<path id="path290" d="M184.467 201.454V222.338C184.467 222.962 184.904 223.467 185.443 223.467C185.981 223.467 186.418 222.962 186.418 222.338V201.454C186.418 200.83 185.981 200.325 185.443 200.325C184.904 200.325 184.467 200.83 184.467 201.454ZM184.467 243.223V264.107C184.467 264.731 184.904 265.236 185.443 265.236C185.981 265.236 186.418 264.731 186.418 264.107V243.223C186.418 242.599 185.981 242.094 185.443 242.094C184.904 242.094 184.467 242.599 184.467 243.223Z" fill="white"/>
<path id="path292" d="M184.467 284.428V293.459C184.467 294.014 184.819 294.489 185.293 294.574L193.002 295.959C193.534 296.055 194.033 295.633 194.116 295.017C194.198 294.401 193.834 293.824 193.301 293.728L186.418 292.491V284.428C186.418 283.804 185.981 283.299 185.443 283.299C184.904 283.299 184.467 283.804 184.467 284.428Z" fill="white"/>
<path id="path294" d="M205.865 298.269L212.748 299.506V307.57C212.748 308.194 213.184 308.699 213.723 308.699C214.262 308.699 214.698 308.194 214.698 307.57V298.539C214.698 297.983 214.347 297.509 213.873 297.423L206.164 296.038C205.632 295.943 205.133 296.364 205.05 296.981C204.968 297.597 205.332 298.173 205.865 298.269" fill="white"/>
<path id="path296" d="M212.748 330.712V353.854C212.748 354.478 213.185 354.983 213.723 354.983C214.262 354.983 214.698 354.478 214.698 353.854V330.712C214.698 330.088 214.262 329.583 213.723 329.583C213.185 329.583 212.748 330.088 212.748 330.712Z" fill="white"/>
<path id="path298" d="M212.748 376.432V384.587L205.924 386.614C205.402 386.769 205.088 387.384 205.222 387.988C205.356 388.592 205.887 388.956 206.409 388.801L213.966 386.557C214.396 386.429 214.698 385.978 214.698 385.464V376.432C214.698 375.809 214.262 375.303 213.723 375.303C213.184 375.303 212.748 375.809 212.748 376.432" fill="white"/>
</g>
</g>
<g id="g14867">
<path id="path86" d="M87.0016 299.999H142.69C143.244 299.999 143.692 299.679 143.692 299.283C143.692 298.888 143.244 298.568 142.69 298.568H87.0016C86.4483 298.568 86 298.888 86 299.283C86 299.679 86.4483 299.999 87.0016 299.999" fill="#DC143C"/>
<g id="g2418">
<g id="g2420">
<path id="path2432" d="M142.69 299.999H115.447C114.894 299.999 114.445 299.679 114.445 299.283C114.445 298.888 114.894 298.568 115.447 298.568H142.69C143.244 298.568 143.692 298.888 143.692 299.283C143.692 299.679 143.244 299.999 142.69 299.999Z" fill="#DC140A"/>
</g>
</g>
<g id="g14863">
<path id="path12697" d="M153.64 284.126L161.472 289.344L161.484 299.804L153.664 305.046L145.833 299.828L145.821 289.368L153.64 284.126Z" fill="#DC143C"/>
<path id="path12723" d="M163.139 290.746L168.906 294.599L163.141 298.454L163.139 290.746Z" fill="#DC143C"/>
</g>
<g id="g13129">
<g id="g13131">
<path id="path13133" d="M152.095 292.1C152.095 292.548 152.267 292.687 152.508 292.687C152.809 292.687 152.99 292.488 152.99 292.289C152.99 291.612 153.377 291.304 153.858 291.304C154.512 291.304 154.787 291.861 154.787 292.349C154.787 293.882 151.975 294.688 151.975 296.301V297.267C151.975 297.476 152.207 297.615 152.379 297.615H155.441C155.595 297.615 155.742 297.386 155.742 297.137C155.742 296.888 155.595 296.679 155.441 296.679H152.912V296.301C152.912 295.156 155.699 294.459 155.699 292.319C155.699 291.124 154.856 290.338 153.858 290.338C152.921 290.338 152.095 291.035 152.095 292.1" fill="white"/>
</g>
</g>
</g>
<g id="g14851">
<g id="g14847">
<path id="path13139" d="M246.952 381.236L239.12 376.018L239.108 365.557L246.928 360.315L254.759 365.533L254.771 375.993L246.952 381.236Z" fill="#696969"/>
<path id="path13141" d="M237.453 374.615L231.686 370.763L237.452 366.908L237.453 374.615Z" fill="#696969"/>
</g>
<g id="g13149">
<g id="g13151">
<path id="path13153" d="M246.441 374.065C246.441 374.293 246.665 374.413 246.897 374.413C247.121 374.413 247.353 374.293 247.353 374.065V367.474C247.353 367.255 247.138 367.126 246.949 367.126C246.846 367.126 246.777 367.166 246.716 367.235L245.822 368.231C245.71 368.321 245.641 368.49 245.641 368.639C245.641 368.848 245.771 369.067 245.951 369.067C246.003 369.067 246.08 369.037 246.14 368.967L246.441 368.53" fill="white"/>
</g>
</g>
</g>
<path id="path68" d="M258.366 378.178H292.741C293.083 378.178 293.359 377.858 293.359 377.462C293.359 377.067 293.083 376.747 292.741 376.747H258.366C258.025 376.747 257.748 377.067 257.748 377.462C257.748 377.858 258.025 378.178 258.366 378.178Z" fill="#E5DBDD"/>
<g id="g2354">
<g id="g2356">
<path id="path2368" d="M302.214 378.178H280.845C280.412 378.178 280.06 377.858 280.06 377.462C280.06 377.067 280.412 376.747 280.845 376.747H302.214C302.648 376.747 303 377.067 303 377.462C303 377.858 302.648 378.178 302.214 378.178Z" fill="#BFB7B8"/>
</g>
</g>
<path id="path50" d="M230.936 235.355H265.311C265.652 235.355 265.929 235.035 265.929 234.64C265.929 234.244 265.652 233.924 265.311 233.924H230.936C230.594 233.924 230.318 234.244 230.318 234.64C230.318 235.035 230.594 235.355 230.936 235.355Z" fill="#805970"/>
<g id="g14859">
<path id="path13159" d="M218.638 241.282L210.807 236.064L210.795 225.604L218.614 220.362L226.446 225.58L226.458 236.04L218.638 241.282Z" fill="#805970"/>
<path id="path13161" d="M209.139 234.662L203.373 230.809L209.138 226.954L209.139 234.662Z" fill="#805970"/>
</g>
<g id="g13179">
<g id="g13181">
<path id="path13183" d="M217.738 232.241C217.041 232.241 216.723 231.813 216.723 231.375C216.723 231.106 216.629 230.976 216.25 230.976C215.941 230.976 215.829 231.076 215.829 231.424C215.829 232.211 216.388 233.176 217.729 233.176C218.813 233.176 219.69 232.589 219.69 231.006V230.817C219.69 229.971 219.32 229.503 218.813 229.274C219.226 229.045 219.501 228.438 219.501 227.611C219.501 226.297 218.778 225.84 217.772 225.84C216.353 225.84 215.966 226.875 215.966 227.522C215.966 227.9 216.035 228.01 216.439 228.01C216.766 228.01 216.869 227.841 216.869 227.582C216.869 227.173 217.067 226.765 217.764 226.765C218.323 226.765 218.624 227.064 218.624 227.791C218.624 228.696 218.254 228.886 217.729 228.886C217.514 228.886 217.437 229.095 217.437 229.314C217.437 229.523 217.514 229.732 217.729 229.732C218.357 229.732 218.778 230.021 218.778 230.817V231.006C218.778 231.872 218.443 232.241 217.738 232.241" fill="white"/>
</g>
</g>
<path id="path32" d="M148.694 132.113H197.088C197.568 132.113 197.958 131.793 197.958 131.397C197.958 131.002 197.568 130.682 197.088 130.682H148.694C148.213 130.682 147.824 131.002 147.824 131.397C147.824 131.793 148.213 132.113 148.694 132.113" fill="#FFE2F5"/>
<g id="g416">
<g id="g418">
<path id="path430" d="M197.088 132.113H173.413C172.932 132.113 172.543 131.793 172.543 131.397C172.543 131.002 172.932 130.682 173.413 130.682H197.088C197.568 130.682 197.958 131.002 197.958 131.397C197.958 131.793 197.568 132.113 197.088 132.113Z" fill="#C77887"/>
</g>
</g>
<g id="g14882">
<path id="path13169" d="M210.883 117.106L218.714 122.324L218.726 132.784L210.907 138.026L203.075 132.808L203.063 122.348L210.883 117.106Z" fill="#C77887"/>
<path id="path13171" d="M220.382 123.726L226.148 127.578L220.383 131.434L220.382 123.726Z" fill="#C77887"/>
</g>
<g id="g1108">
<g id="g1110">
<path id="path1122" d="M270.459 235.355H251.169C250.777 235.355 250.459 235.035 250.459 234.64C250.459 234.244 250.777 233.924 251.169 233.924H270.459C270.851 233.924 271.168 234.244 271.168 234.64C271.168 235.035 270.851 235.355 270.459 235.355Z" fill="#543A49"/>
</g>
</g>
<g id="g13185">
<g id="g13187">
<path id="path13189" d="M211.115 130.6C211.115 130.829 211.338 130.948 211.571 130.948C211.794 130.948 212.026 130.829 212.026 130.6V129.316H212.448C212.611 129.316 212.757 129.067 212.757 128.828C212.757 128.579 212.654 128.33 212.448 128.33H212.026V126.956C212.026 126.707 211.794 126.608 211.571 126.608C211.338 126.608 211.115 126.707 211.115 126.956V128.33H209.851L211.622 124.238C211.648 124.179 211.665 124.129 211.665 124.079C211.665 123.83 211.381 123.671 211.209 123.671C211.063 123.671 210.908 123.75 210.814 123.96L208.733 128.708C208.698 128.778 208.681 128.858 208.681 128.927C208.681 129.166 208.819 129.316 208.999 129.316H211.115" fill="white"/>
</g>
</g>
</g>
</g>
</svg>
